{"scene":0,"asset":{"generator":"ImageToStl.com","version":"2.0"},"scenes":[{"name":"Scene","nodes":[0]}],"nodes":[{"name":"Node0","children":[1]},{"name":"Node1","mesh":0}],"materials":[{"name":"x1","pbrMetallicRoughness":{"baseColorFactor":[0.85,0.85,0.85,1.0],"metallicFactor":0.05,"roughnessFactor":0.5},"doubleSided":true}],"meshes":[{"name":"Mesh0","primitives":[{"indices":3,"material":0,"attributes":{"POSITION":0,"NORMAL":1,"TEXCOORD_0":2}}]}],"accessors":[{"bufferView":0,"componentType":5126,"count":1484,"type":"VEC3","min":[-11.088707,-11.092882,-1.099341],"max":[11.088707,11.092882,6.1]},{"bufferView":1,"componentType":5126,"count":1484,"type":"VEC3"},{"bufferView":2,"componentType":5126,"count":1484,"type":"VEC2"},{"bufferView":3,"componentType":5123,"count":22968,"type":"SCALAR"}],"bufferViews":[{"target":34962,"buffer":0,"byteLength":17808,"byteOffset":0},{"target":34962,"buffer":0,"byteLength":17808,"byteOffset":17808},{"target":34962,"buffer":0,"byteLength":11872,"byteOffset":35616},{"target":34963,"buffer":0,"byteLength":45936,"byteOffset":47488}],"buffers":[{"byteLength":93424,"uri":"data:application/octet-stream;base64,"}]}