{"scene":0,"asset":{"generator":"ImageToStl.com","version":"2.0"},"scenes":[{"name":"Scene","nodes":[0]}],"nodes":[{"name":"Node0","children":[1]},{"name":"Node1","mesh":0}],"materials":[{"name":"x1","pbrMetallicRoughness":{"baseColorFactor":[0.85,0.85,0.85,1.0],"metallicFactor":0.05,"roughnessFactor":0.5},"doubleSided":true}],"meshes":[{"name":"Mesh0","primitives":[{"indices":3,"material":0,"attributes":{"POSITION":0,"NORMAL":1,"TEXCOORD_0":2}}]}],"accessors":[{"bufferView":0,"componentType":5126,"count":14466,"type":"VEC3","min":[-10.102353,-10.100525,-0.101327],"max":[10.122589,10.100133,5.100092]},{"bufferView":1,"componentType":5126,"count":14466,"type":"VEC3"},{"bufferView":2,"componentType":5126,"count":14466,"type":"VEC2"},{"bufferView":3,"componentType":5123,"count":224496,"type":"SCALAR"}],"bufferViews":[{"target":34962,"buffer":0,"byteLength":173592,"byteOffset":0},{"target":34962,"buffer":0,"byteLength":173592,"byteOffset":173592},{"target":34962,"buffer":0,"byteLength":115728,"byteOffset":347184},{"target":34963,"buffer":0,"byteLength":448992,"byteOffset":462912}],"buffers":[{"byteLength":911904,"uri":"data:application/octet-stream;base64,"}]}